# xmcd
# 
# Track frame offsets:
#     150
#     16418
#     33641
#     50075
#     61174
#     76105
#     93129
#     106075
#     119688
#     134845
#     148517
#     161199
#     176830
#     192650
# 
# Disc length: 2817
# 
# Revision: 2
# Processed by: cddbd v1.5.2PL0 Copyright (c) Steve Scherf et al.
# Submitted via: fre:ac v1.0.31
# 
DISCID=ca0aff0e
DTITLE=Christmas - Kelly Clarkson Wrapped In Red
DYEAR=2013
DGENRE=Christmas
TTITLE0=Wrapped In Red
TTITLE1=Underneath The Tree
TTITLE2=Have Yourself A Merry Little Christmas
TTITLE3=Run Run Rudolph
TTITLE4=Please Come Home For Christmas (Bells Will Be Ringing)
TTITLE5=Every Christmas
TTITLE6=Blue Christmas
TTITLE7=Baby, It's Cold Outside (featuring Ronnie Dunn)
TTITLE8=Winter Dreams (Brandon's Song)
TTITLE9=White Christmas
TTITLE10=My Favorite Things
TTITLE11=4 Carats
TTITLE12=Just For Now
TTITLE13=Silent Night (featuring Reba and Trisha Yearwood)
EXTD=
EXTT0=
EXTT1=
EXTT2=
EXTT3=
EXTT4=
EXTT5=
EXTT6=
EXTT7=
EXTT8=
EXTT9=
EXTT10=
EXTT11=
EXTT12=
EXTT13=
PLAYORDER=
